HIERARCHY
ROOT Hips
{
 OFFSET 0.000000 0.000000 0.000000
 CHANNELS 6 Xposition Yposition Zposition Yrotation Xrotation Zrotation
 JOINT Chest
 {
  OFFSET 0.000000 9.581000 -0.001100
  CHANNELS 3 Yrotation Xrotation Zrotation
  JOINT Chest2
  {
   OFFSET 0.000000 9.561100 0.002200
   CHANNELS 3 Yrotation Xrotation Zrotation
   JOINT Chest3
   {
    OFFSET 0.000000 9.521100 0.000000
    CHANNELS 3 Yrotation Xrotation Zrotation
    JOINT Chest4
    {
     OFFSET 0.000000 9.511400 0.000000
     CHANNELS 3 Yrotation Xrotation Zrotation
     JOINT Neck
     {
      OFFSET 0.000000 14.375100 0.000000
      CHANNELS 3 Yrotation Xrotation Zrotation
      JOINT Head
      {
       OFFSET 0.000000 8.901200 0.004600
       CHANNELS 3 Yrotation Xrotation Zrotation
       End Site
       {
        OFFSET 0.000000 16.962200 0.002400
       }
      }
     }
     JOINT RightCollar
     {
      OFFSET -2.920100 9.518800 0.000000
      CHANNELS 3 Yrotation Xrotation Zrotation
      JOINT RightShoulder
      {
       OFFSET -13.664500 0.000000 0.000000
       CHANNELS 3 Yrotation Xrotation Zrotation
       JOINT RightElbow
       {
        OFFSET 0.000000 -29.999200 0.000000
        CHANNELS 3 Yrotation Xrotation Zrotation
        JOINT RightWrist
        {
         OFFSET 0.000000 -24.253600 0.000000
         CHANNELS 3 Yrotation Xrotation Zrotation
         End Site
         {
          OFFSET 0.000000 -17.918900 0.000000
         }
        }
       }
      }
     }
     JOINT LeftCollar
     {
      OFFSET 2.920100 9.518800 0.000000
      CHANNELS 3 Yrotation Xrotation Zrotation
      JOINT LeftShoulder
      {
       OFFSET 13.664500 0.000000 0.000000
       CHANNELS 3 Yrotation Xrotation Zrotation
       JOINT LeftElbow
       {
        OFFSET 0.000000 -29.999200 0.000000
        CHANNELS 3 Yrotation Xrotation Zrotation
        JOINT LeftWrist
        {
         OFFSET 0.000000 -24.253600 0.000000
         CHANNELS 3 Yrotation Xrotation Zrotation
         End Site
         {
          OFFSET 0.000000 -17.918900 0.000000
         }
        }
       }
      }
     }
    }
   }
  }
 }
 JOINT RightHip
 {
  OFFSET -7.797300 0.005300 0.000500
  CHANNELS 3 Yrotation Xrotation Zrotation
  JOINT RightKnee
  {
   OFFSET 0.000000 -40.663400 -0.000500
   CHANNELS 3 Yrotation Xrotation Zrotation
   JOINT RightAnkle
   {
    OFFSET 0.000000 -39.523700 -0.000900
    CHANNELS 3 Yrotation Xrotation Zrotation
    JOINT RightToe
    {
     OFFSET 0.000000 -6.418000 14.485300
     CHANNELS 3 Yrotation Xrotation Zrotation
     End Site
     {
      OFFSET 0.000000 -1.465200 6.326400
     }
    }
   }
  }
 }
 JOINT LeftHip
 {
  OFFSET 7.797300 0.005300 0.000500
  CHANNELS 3 Yrotation Xrotation Zrotation
  JOINT LeftKnee
  {
   OFFSET 0.000000 -40.663400 -0.000500
   CHANNELS 3 Yrotation Xrotation Zrotation
   JOINT LeftAnkle
   {
    OFFSET 0.000000 -39.523700 -0.000900
    CHANNELS 3 Yrotation Xrotation Zrotation
    JOINT LeftToe
    {
     OFFSET 0.000000 -6.418000 14.485300
     CHANNELS 3 Yrotation Xrotation Zrotation
     End Site
     {
      OFFSET 0.000000 -1.465200 6.326400
     }
    }
   }
  }
 }
}
MOTION
Frames: 14
Frame Time: 0.008333
-9.493499 126.544177 4.181331 164.855315 -31.105052 -2.571264 2.672884 23.439522 0.511473 0.377414 3.464857 -0.000921 0.609459 5.587114 0.009731 2.214730 19.640733 0.312490 5.769901 14.544562 -3.078602 6.974360 -10.256498 -4.684622 1.249545 -0.764278 1.401693 9.111177 -21.741051 -8.181194 73.908868 -65.417547 -53.552392 6.372289 20.693203 -22.191367 -8.589380 -2.227447 1.833633 -8.438667 -26.075369 4.303572 -64.255559 -58.014627 59.093132 -34.845164 22.289714 5.826268 6.847362 -52.882577 4.919216 -98.376827 82.849745 -96.926283 11.003438 -22.737260 3.387612 0.020480 0.047245 0.009081 -3.363117 -43.808713 0.131286 48.183603 83.861194 42.636148 3.108915 -10.078466 4.141113 -0.006688 -0.032930 -0.002962
-9.488892 126.545329 4.189238 164.771501 -31.160795 -2.548246 2.632732 23.408453 0.480465 0.373868 3.452329 -0.005924 0.603657 5.568085 0.001521 2.194213 19.614036 0.280468 5.719937 14.635497 -3.226034 6.956107 -10.155950 -4.833639 1.311097 -0.774130 1.427977 9.188194 -21.790364 -8.156255 73.819773 -65.115963 -53.338607 6.386403 20.698235 -22.200030 -8.546784 -2.242078 1.816707 -8.419791 -26.010151 4.292525 -64.096153 -57.870039 58.963226 -34.808712 22.302333 5.815116 6.855143 -52.849463 4.985032 -97.940682 82.691143 -96.458313 11.067913 -22.691516 3.384074 0.026279 0.084417 0.011660 -3.363681 -43.766023 0.191501 48.301775 83.874579 42.727555 3.131506 -10.070750 4.136756 -0.022246 -0.040668 -0.009851
-9.489197 126.544901 4.197816 164.661060 -31.201116 -2.483971 2.604902 23.359557 0.425315 0.370452 3.438401 -0.010027 0.598139 5.546934 -0.005229 2.175775 19.583872 0.253766 5.672979 14.730482 -3.371423 6.940932 -10.050744 -4.981408 1.375496 -0.773548 1.448612 9.280392 -21.831560 -8.129542 73.744118 -64.805288 -53.175563 6.394599 20.701356 -22.205174 -8.499213 -2.249793 1.797105 -8.364408 -25.901788 4.261134 -64.017427 -57.768729 58.889252 -34.797168 22.317914 5.793432 6.730202 -52.866254 5.111500 -97.763823 82.566719 -96.359531 11.169268 -22.574940 3.362632 0.001765 0.069780 0.000784 -3.297673 -43.743616 0.190991 48.343017 83.894690 42.779142 3.145675 -10.046653 4.121701 -0.016883 -0.038670 -0.007476
-9.490233 126.543797 4.207189 164.594108 -31.232229 -2.438460 2.542501 23.300273 0.374013 0.366740 3.424262 -0.013058 0.592281 5.525492 -0.010328 2.156862 19.553115 0.232870 5.628077 14.822862 -3.517255 6.928391 -9.947923 -5.130515 1.446292 -0.766757 1.462412 9.386786 -21.864590 -8.104348 73.664401 -64.500775 -53.048624 6.396071 20.704477 -22.210523 -8.448505 -2.254481 1.769546 -8.372185 -25.871655 4.259220 -63.761024 -57.650083 58.660453 -34.776898 22.316594 5.784306 6.670018 -52.883947 5.155213 -97.542441 82.453944 -96.162601 11.247603 -22.457603 3.356663 -0.025250 0.067851 -0.011199 -3.275669 -43.737946 0.184944 48.395619 83.923451 42.838038 3.159014 -10.006671 4.132036 -0.018642 -0.021626 -0.008257
-9.488366 126.544957 4.213729 164.478819 -31.291022 -2.378461 2.530378 23.263868 0.344137 0.362541 3.410916 -0.015473 0.585597 5.505226 -0.014382 2.135100 19.524238 0.215217 5.586862 14.907150 -3.666057 6.920980 -9.853136 -5.284169 1.528405 -0.757938 1.471036 9.506065 -21.889272 -8.086649 73.561151 -64.218949 -52.940377 6.394913 20.705520 -22.215423 -8.391641 -2.262077 1.732486 -8.379891 -25.853664 4.262778 -63.491178 -57.535723 58.403110 -34.760824 22.308269 5.782094 6.710905 -52.876416 5.163777 -97.304300 82.362744 -95.910514 11.338417 -22.351603 3.343652 -0.033369 0.062929 -0.014799 -3.227995 -43.698674 0.188691 48.432084 83.948162 42.875316 3.209544 -9.989352 4.107160 -0.022915 -0.028600 -0.010148
-9.485726 126.547154 4.218978 164.370771 -31.362740 -2.322089 2.517811 23.240344 0.323226 0.358319 3.398970 -0.017515 0.578715 5.487025 -0.017816 2.112554 19.498526 0.199775 5.547303 14.980505 -3.818669 6.916688 -9.769605 -5.442814 1.616820 -0.753574 1.477695 9.628536 -21.906427 -8.075298 73.430619 -63.966838 -52.836991 6.389875 20.700864 -22.217004 -8.333234 -2.277343 1.690590 -8.371621 -25.822733 4.262416 -63.266269 -57.427709 58.170110 -34.749694 22.296739 5.781871 6.781771 -52.851420 5.155711 -97.051642 82.292015 -95.621869 11.382232 -22.251158 3.339073 -0.037804 0.067413 -0.016767 -3.171135 -43.640544 0.189350 48.401601 83.974909 42.846377 3.252261 -9.979164 4.091106 -0.023789 -0.030551 -0.010535
-9.479266 126.550741 4.223541 164.299236 -31.449989 -2.302596 2.492729 23.234050 0.330263 0.354541 3.388944 -0.019060 0.572600 5.471793 -0.020428 2.092419 19.477010 0.187668 5.505879 15.040683 -3.972256 6.910811 -9.700105 -5.602446 1.702553 -0.758360 1.484967 9.741533 -21.920426 -8.064753 73.276163 -63.743004 -52.727921 6.380040 20.692253 -22.215739 -8.283326 -2.301926 1.648361 -8.363288 -25.805863 4.270539 -63.032142 -57.316299 57.915723 -34.696664 22.284713 5.800921 6.808114 -52.792691 5.188303 -96.679470 82.239247 -95.206968 11.383838 -22.158288 3.371332 -0.025313 0.107345 -0.011233 -3.162301 -43.569904 0.214911 48.106831 84.029676 42.571217 3.293236 -9.936521 4.097154 -0.014597 -0.011808 -0.006466
-9.481176 126.549933 4.233019 164.196421 -31.493174 -2.223450 2.485201 23.186606 0.295642 0.351160 3.381096 -0.020100 0.567302 5.459956 -0.022173 2.074588 19.460311 0.178811 5.463662 15.084794 -4.122850 6.903505 -9.647854 -5.758917 1.781652 -0.773169 1.494598 9.839432 -21.934635 -8.055492 73.105724 -63.544592 -52.610236 6.337915 20.692944 -22.182971 -8.247116 -2.339013 1.605704 -8.355712 -25.798948 4.290802 -62.784580 -57.202760 57.642370 -34.639266 22.270881 5.819227 6.987165 -52.856655 5.061407 -96.990191 82.237242 -95.426498 11.374850 -21.970844 3.396168 -0.012614 0.033382 -0.005592 -3.094752 -43.539999 0.195879 48.029029 84.045847 42.478366 3.301745 -9.908689 4.101061 -0.006214 -0.002947 -0.002753
-9.480173 126.548918 4.244222 164.159588 -31.533114 -2.195839 2.475003 23.182171 0.285907 0.317365 3.334130 -0.006733 0.562459 5.451485 -0.023172 2.058188 19.448603 0.172945 5.423207 15.110534 -4.268031 6.896997 -9.615394 -5.910212 1.852367 -0.802203 1.506240 9.916772 -21.947209 -8.048231 72.935511 -63.369756 -52.487345 6.339911 20.678254 -22.198983 -8.221439 -2.392023 1.561754 -8.357791 -25.797664 4.323752 -62.518433 -57.087347 57.352684 -34.698435 22.238139 5.782664 7.067998 -52.883811 5.004866 -96.991604 82.242984 -95.346465 11.327313 -21.872803 3.414714 -0.007275 0.025390 -0.003224 -3.105321 -43.512925 0.211983 47.945562 84.059790 42.371699 3.309818 -9.875089 4.107723 -0.004213 0.004923 -0.001867
-9.477183 126.550408 4.252059 164.155648 -31.602199 -2.189849 2.399597 23.150509 0.289536 0.357009 3.391799 -0.029007 0.533124 5.405760 -0.007038 2.043118 19.441268 0.170146 5.384626 15.119049 -4.406283 6.890928 -9.601679 -6.054651 1.912310 -0.849327 1.516817 9.965979 -21.956285 -8.037416 72.712797 -63.234679 -52.268091 6.350186 20.659264 -22.237629 -8.205290 -2.459892 1.519175 -8.374147 -25.802907 4.364845 -62.232454 -56.969403 57.049194 -34.703971 22.212617 5.773995 7.077360 -52.839319 5.001593 -96.631907 82.267838 -94.921493 11.246556 -21.838199 3.428741 -0.011128 0.069579 -0.004936 -3.145910 -43.457054 0.235557 47.894910 84.069557 42.295425 3.318861 -9.853094 4.105225 -0.002368 0.011062 -0.001049
-9.474013 126.551689 4.260570 164.097719 -31.670998 -2.157356 2.382761 23.123445 0.301269 0.386846 3.444425 -0.052959 0.535574 5.405466 -0.005709 2.014146 19.395496 0.189353 5.346846 15.115695 -4.536981 6.883851 -9.601040 -6.191224 1.958762 -0.909267 1.525364 9.984753 -21.963598 -8.020791 72.517452 -63.110251 -52.050055 6.334596 20.658802 -22.220082 -8.201810 -2.537442 1.482769 -8.401133 -25.813412 4.407267 -61.909032 -56.895043 56.730903 -34.695062 22.201397 5.775836 7.162340 -52.838417 4.966177 -96.525401 82.313963 -94.728956 11.178220 -21.729455 3.513966 0.008420 0.055496 0.003734 -3.114683 -43.397152 0.242252 47.823592 84.075153 42.219060 3.322999 -9.827501 4.099137 0.003100 0.011106 0.001374
-9.471518 126.553000 4.269017 164.052657 -31.739244 -2.128509 2.380412 23.120253 0.312795 0.379486 3.438562 -0.050099 0.525888 5.382488 0.002167 2.026891 19.453759 0.162248 5.301051 15.059248 -4.636511 6.875474 -9.606880 -6.318182 1.975774 -1.017090 1.558431 9.978160 -21.970901 -8.002660 72.468473 -62.966245 -52.041679 6.319564 20.647010 -22.162847 -8.225164 -2.657079 1.487417 -8.437999 -25.826234 4.446834 -61.590698 -56.748814 56.405693 -34.608701 22.177534 5.814662 7.238534 -52.837460 4.925273 -96.363381 82.362054 -94.475979 11.144673 -21.606416 3.541641 0.026706 0.048173 0.011841 -3.089523 -43.340180 0.245407 47.764446 84.082035 42.154390 3.320024 -9.790653 4.097094 0.007928 0.018364 0.003514
-9.469467 126.557183 4.272721 163.991456 -31.839121 -2.082692 2.402328 23.146700 0.319550 0.344554 3.379451 -0.025562 0.542099 5.409852 -0.011695 2.014978 19.441073 0.169957 5.271933 15.071579 -4.757692 6.865412 -9.614509 -6.431944 2.003436 -1.048449 1.555566 9.952614 -21.977397 -7.986164 72.377993 -62.856523 -51.940727 6.309990 20.610908 -22.224043 -8.228804 -2.705601 1.449232 -8.491594 -25.841734 4.486148 -61.246349 -56.603956 56.070645 -34.556587 22.144597 5.842406 7.316071 -52.799781 4.883735 -96.130598 82.410995 -94.157466 11.129170 -21.479629 3.574636 0.035121 0.041772 0.015571 -3.054496 -43.255820 0.241443 47.767217 84.085700 42.143554 3.313729 -9.732887 4.085335 0.010877 0.010866 0.004820
-9.473819 126.554685 4.285910 163.958416 -31.861122 -2.033116 2.401036 23.090666 0.306707 0.336107 3.354018 -0.016198 0.543276 5.418677 -0.016267 1.998214 19.402855 0.189820 5.242048 15.086749 -4.862965 6.854859 -9.621838 -6.530191 2.017125 -1.066357 1.553054 9.911771 -21.981652 -7.972194 72.266649 -62.767693 -51.791003 6.293409 20.589451 -22.247808 -8.241011 -2.735937 1.413557 -8.559120 -25.858121 4.524147 -60.882945 -56.483068 55.737659 -34.546954 22.104064 5.850829 7.334204 -52.874993 4.814887 -96.161154 82.480383 -94.132918 11.159727 -21.305752 3.606561 0.009963 -0.006580 0.004414 -3.041210 -43.268735 0.213467 47.934966 84.079609 42.295910 3.311430 -9.660669 4.067178 0.007283 -0.000949 0.003227
